<?xml version="1.0" encoding="utf-8"?>
<!-- Generator: Adobe Illustrator 23.0.2, SVG Export Plug-In . SVG Version: 6.00 Build 0)  -->
<svg version="1.1" id="Layer_1" xmlns="http://www.w3.org/2000/svg" xmlns:xlink="http://www.w3.org/1999/xlink" x="0px" y="0px"
	 viewBox="0 0 119 35" style="enable-background:new 0 0 119 35;" xml:space="preserve">
<style type="text/css">
	.st0{fill:#35B44A;}
</style>
<g>
	<path d="M5.3,16.5h3.6V19H5.3v7.3H2.5V8.7h7.3v2.5H5.3V16.5z"/>
	<path d="M11,12.9c0-2.8,1.5-4.4,4.2-4.4c2.7,0,4.2,1.6,4.2,4.4v9.2c0,2.8-1.5,4.4-4.2,4.4c-2.7,0-4.2-1.6-4.2-4.4V12.9z M13.7,22.3
		c0,1.3,0.6,1.7,1.4,1.7c0.9,0,1.4-0.5,1.4-1.7v-9.5c0-1.3-0.6-1.7-1.4-1.7c-0.9,0-1.4,0.5-1.4,1.7V22.3z"/>
	<path d="M20.9,12.9c0-2.8,1.5-4.4,4.2-4.4c2.7,0,4.2,1.6,4.2,4.4v9.2c0,2.8-1.5,4.4-4.2,4.4c-2.7,0-4.2-1.6-4.2-4.4V12.9z
		 M23.7,22.3c0,1.3,0.6,1.7,1.4,1.7c0.9,0,1.4-0.5,1.4-1.7v-9.5c0-1.3-0.6-1.7-1.4-1.7c-0.9,0-1.4,0.5-1.4,1.7V22.3z"/>
	<path d="M31.2,8.7h4.4c2.8,0,4.1,1.5,4.1,4.4V22c0,2.8-1.4,4.4-4.1,4.4h-4.4V8.7z M33.9,11.2v12.6h1.6c0.9,0,1.4-0.5,1.4-1.7v-9.2
		c0-1.3-0.5-1.7-1.4-1.7H33.9z"/>
	<path d="M45.4,8.7h4.4c2.8,0,4.1,1.5,4.1,4.4V22c0,2.8-1.4,4.4-4.1,4.4h-4.4V8.7z M48.1,11.2v12.6h1.6c0.9,0,1.4-0.5,1.4-1.7v-9.2
		c0-1.3-0.5-1.7-1.4-1.7H48.1z"/>
	<path d="M58.4,16.1h3.8v2.5h-3.8v5.2h4.8v2.5h-7.6V8.7h7.6v2.5h-4.8V16.1z"/>
	<path d="M65,8.7h2.8v15.1h4.6v2.5H65V8.7z"/>
	<path d="M73.5,8.7h2.8v17.7h-2.8V8.7z"/>
	<path d="M82.5,23.1l2.1-14.4h2.5l-2.7,17.7h-4.1L77.6,8.7h2.8L82.5,23.1z"/>
	<path d="M91.2,16.1H95v2.5h-3.8v5.2H96v2.5h-7.6V8.7H96v2.5h-4.8V16.1z"/>
	<path d="M103.5,26.3c-0.2-0.5-0.3-0.7-0.3-2.2v-2.8c0-1.6-0.6-2.2-1.8-2.2h-1v7.2h-2.8V8.7h4.2c2.9,0,4.1,1.3,4.1,4.1v1.4
		c0,1.8-0.6,3-1.8,3.6c1.4,0.6,1.8,1.9,1.8,3.8v2.7c0,0.9,0,1.5,0.3,2.1H103.5z M100.5,11.2v5.4h1.1c1,0,1.7-0.5,1.7-1.9V13
		c0-1.3-0.4-1.8-1.4-1.8H100.5z"/>
	<path d="M110.2,20.5l-3.5-11.8h2.9l2.1,8l2.1-8h2.6L113,20.5v5.9h-2.8V20.5z"/>
</g>
<polygon class="st0" points="18.6,33.2 21.5,30.2 19.1,30.3 14.3,35 119,35 116.2,33.2 "/>
<polygon class="st0" points="100.4,1.8 97.5,4.8 99.9,4.8 102.8,1.8 104.7,0 103.5,0 0,0 2.8,1.8 "/>
</svg>
